<svg xmlns="http://www.w3.org/2000/svg" width="16" height="16" viewBox="0 0 16 16" fill="none">
<path d="M13.6134 3.05335C13.2789 2.71773 12.8815 2.45144 12.4439 2.26974C12.0064 2.08804 11.5372 1.99451 11.0634 1.99451C10.5896 1.99451 10.1204 2.08804 9.68284 2.26974C9.24526 2.45144 8.84784 2.71773 8.51339 3.05335L8.00006 3.57335L7.48672 3.05335C7.15227 2.71773 6.75486 2.45144 6.31727 2.26974C5.87968 2.08804 5.41053 1.99451 4.93672 1.99451C4.46291 1.99451 3.99376 2.08804 3.55618 2.26974C3.11859 2.45144 2.72118 2.71773 2.38672 3.05335C0.973391 4.46668 0.886724 6.85335 2.66672 8.66668L8.00006 14L13.3334 8.66668C15.1134 6.85335 15.0267 4.46668 13.6134 3.05335Z" stroke="#1E293B" stroke-width="2" stroke-linecap="round" stroke-linejoin="round"/>
</svg>